<svg xmlns="http://www.w3.org/2000/svg" xmlns:xlink="http://www.w3.org/1999/xlink" width="750" zoomAndPan="magnify" viewBox="0 0 566.25 566.250005" height="750" preserveAspectRatio="xMidYMid meet" version="1.0"><defs><clipPath id="id1"><path d="M 305 204 L 565.5 204 L 565.5 398 L 305 398 Z M 305 204 " clip-rule="nonzero"/></clipPath><clipPath id="id2"><path d="M 339.039062 165.359375 L 642.164062 288.847656 L 581.691406 437.292969 L 278.566406 313.800781 Z M 339.039062 165.359375 " clip-rule="nonzero"/></clipPath><clipPath id="id3"><path d="M 339.039062 165.359375 L 642.164062 288.847656 L 581.691406 437.292969 L 278.566406 313.800781 Z M 339.039062 165.359375 " clip-rule="nonzero"/></clipPath><clipPath id="id4"><path d="M 156.984375 360.707031 L 406.40625 360.707031 L 406.40625 398.90625 L 156.984375 398.90625 Z M 156.984375 360.707031 " clip-rule="nonzero"/></clipPath><clipPath id="id5"><path d="M 0 205 L 252 205 L 252 399 L 0 399 Z M 0 205 " clip-rule="nonzero"/></clipPath><clipPath id="id6"><path d="M -85.464844 288.761719 L 218.105469 166.363281 L 278.042969 315.019531 L -25.527344 437.417969 Z M -85.464844 288.761719 " clip-rule="nonzero"/></clipPath><clipPath id="id7"><path d="M 278.453125 315.132812 L -25.117188 437.53125 L -85.054688 288.871094 L 218.515625 166.472656 Z M 278.453125 315.132812 " clip-rule="nonzero"/></clipPath><clipPath id="id8"><path d="M 0 94.25 L 565.5 94.25 L 565.5 496.46875 L 0 496.46875 Z M 0 94.25 " clip-rule="nonzero"/></clipPath><clipPath id="id9"><path d="M 8.898438 124.472656 L 288.277344 124.472656 L 288.277344 191.882812 L 8.898438 191.882812 Z M 8.898438 124.472656 " clip-rule="nonzero"/></clipPath><clipPath id="id10"><path d="M 279.792969 124.472656 L 559.171875 124.472656 L 559.171875 191.882812 L 279.792969 191.882812 Z M 279.792969 124.472656 " clip-rule="nonzero"/></clipPath><clipPath id="id11"><path d="M 0 379 L 37 379 L 37 565.5 L 0 565.5 Z M 0 379 " clip-rule="nonzero"/></clipPath><clipPath id="id12"><path d="M 525 379 L 565.5 379 L 565.5 565.5 L 525 565.5 Z M 525 379 " clip-rule="nonzero"/></clipPath><clipPath id="id13"><path d="M 537 191 L 565.5 191 L 565.5 481 L 537 481 Z M 537 191 " clip-rule="nonzero"/></clipPath></defs><g clip-path="url(#id1)"><g clip-path="url(#id2)"><g clip-path="url(#id3)"><path fill="rgb(0%, 0%, 0%)" d="M 486.851562 236.3125 C 506.675781 244.386719 525.128906 254.09375 541.726562 265.234375 C 557.546875 275.851562 570.992188 287.261719 581.570312 299.128906 C 591.660156 310.445312 598.894531 322.011719 602.464844 332.511719 C 605.855469 342.582031 605.996094 351.609375 602.835938 359.367188 C 599.675781 367.121094 593.265625 373.480469 583.804688 378.316406 C 573.914062 383.332031 560.660156 386.550781 545.53125 387.59375 C 529.671875 388.691406 512.078125 387.457031 493.34375 383.996094 C 473.75 380.390625 453.765625 374.441406 433.878906 366.339844 C 413.996094 358.238281 395.601562 348.554688 379.003906 337.414062 C 363.183594 326.800781 349.738281 315.386719 339.160156 303.519531 C 329.070312 292.203125 321.835938 280.636719 318.265625 270.140625 C 314.875 260.070312 314.734375 251.042969 317.894531 243.285156 C 321.054688 235.53125 327.464844 229.167969 336.925781 224.332031 C 346.816406 219.320312 360.070312 216.101562 375.199219 215.058594 C 391.058594 213.960938 408.652344 215.191406 427.386719 218.65625 C 447.019531 222.34375 467.027344 228.234375 486.851562 236.3125 M 490.554688 227.222656 C 406.828125 193.113281 325.464844 198.683594 308.800781 239.582031 C 292.140625 280.480469 346.453125 341.320312 430.175781 375.429688 C 513.902344 409.535156 595.242188 404.03125 611.929688 363.070312 C 628.589844 322.171875 574.277344 261.332031 490.554688 227.222656 Z M 490.554688 227.222656 " fill-opacity="1" fill-rule="nonzero"/></g></g></g><path fill="rgb(100%, 100%, 100%)" d="M -28.496094 408.902344 L 46.402344 408.902344 L 46.402344 483.804688 L -28.496094 483.804688 L -28.496094 408.902344 " fill-opacity="1" fill-rule="nonzero"/><path fill="rgb(0%, 0%, 0%)" d="M 184.449219 244.621094 C 175.140625 244.621094 167.59375 252.167969 167.59375 261.472656 C 167.59375 270.78125 175.140625 278.328125 184.449219 278.328125 C 193.753906 278.328125 201.300781 270.78125 201.300781 261.472656 C 201.300781 252.167969 193.753906 244.621094 184.449219 244.621094 " fill-opacity="1" fill-rule="nonzero"/><path fill="rgb(0%, 0%, 0%)" d="M 370.9375 244.621094 C 361.628906 244.621094 354.085938 252.167969 354.085938 261.472656 C 354.085938 270.78125 361.628906 278.328125 370.9375 278.328125 C 380.246094 278.328125 387.789062 270.78125 387.789062 261.472656 C 387.789062 252.167969 380.246094 244.621094 370.9375 244.621094 " fill-opacity="1" fill-rule="nonzero"/><path fill="rgb(11.759949%, 11.759949%, 11.759949%)" d="M 281.519531 337.402344 C 267.042969 337.402344 255.304688 349.136719 255.304688 363.617188 C 255.304688 378.09375 267.042969 389.832031 281.519531 389.832031 C 296 389.832031 307.734375 378.09375 307.734375 363.617188 C 307.734375 349.136719 296 337.402344 281.519531 337.402344 " fill-opacity="1" fill-rule="nonzero"/><path fill="rgb(100%, 100%, 100%)" d="M 248.433594 377.972656 C 248.433594 396.433594 281.535156 418.949219 281.535156 418.949219 C 281.535156 418.949219 314.488281 396.273438 314.632812 377.972656 C 314.632812 368.523438 306.941406 360.824219 297.5 360.824219 C 290.246094 360.824219 283.996094 365.476562 281.535156 371.863281 C 279.070312 365.476562 272.824219 360.824219 265.566406 360.824219 C 256.128906 360.824219 248.433594 368.523438 248.433594 377.972656 " fill-opacity="1" fill-rule="nonzero"/><g clip-path="url(#id4)"><path fill="rgb(0%, 0%, 0%)" d="M 280.945312 392.664062 C 264.742188 392.664062 249.039062 390.457031 234.289062 386.042969 C 220.140625 381.832031 207.449219 375.863281 196.613281 368.242188 C 174.988281 353.046875 163.101562 333.136719 163.101562 312.175781 C 163.101562 291.214844 174.988281 271.257812 196.613281 256.113281 C 207.449219 248.488281 220.140625 242.523438 234.289062 238.308594 C 249.039062 233.945312 264.742188 231.691406 280.945312 231.691406 C 297.152344 231.691406 312.855469 233.894531 327.601562 238.308594 C 341.75 242.523438 354.445312 248.488281 365.28125 256.113281 C 386.953125 271.257812 398.84375 291.164062 398.84375 312.175781 C 398.84375 333.1875 386.953125 353.046875 365.328125 368.242188 C 354.492188 375.863281 341.800781 381.832031 327.652344 386.042969 C 312.855469 390.457031 297.152344 392.664062 280.945312 392.664062 M 280.945312 400.183594 C 350.230469 400.183594 406.367188 360.769531 406.367188 312.175781 C 406.367188 263.582031 350.230469 224.167969 280.945312 224.167969 C 211.664062 224.167969 155.523438 263.582031 155.523438 312.175781 C 155.523438 360.769531 211.664062 400.183594 280.945312 400.183594 Z M 280.945312 400.183594 " fill-opacity="1" fill-rule="nonzero"/></g><g clip-path="url(#id5)"><g clip-path="url(#id6)"><g clip-path="url(#id7)"><path fill="rgb(0%, 0%, 0%)" d="M 122.953125 367.113281 C 103.097656 375.117188 83.09375 380.996094 63.421875 384.550781 C 44.675781 387.949219 27.078125 389.117188 11.222656 387.960938 C -3.898438 386.863281 -17.144531 383.597656 -27.015625 378.550781 C -36.460938 373.679688 -42.847656 367.296875 -45.976562 359.53125 C -49.109375 351.761719 -48.9375 342.734375 -45.511719 332.675781 C -41.902344 322.191406 -34.628906 310.652344 -24.496094 299.371094 C -13.878906 287.542969 -0.390625 276.175781 15.46875 265.621094 C 32.046875 254.5625 50.535156 244.921875 70.449219 236.894531 C 90.363281 228.863281 110.304688 223.007812 129.976562 219.453125 C 148.722656 216.054688 166.320312 214.886719 182.175781 216.042969 C 197.300781 217.140625 210.542969 220.40625 220.414062 225.457031 C 229.859375 230.324219 236.246094 236.707031 239.378906 244.476562 C 242.507812 252.242188 242.339844 261.269531 238.910156 271.328125 C 235.304688 281.8125 228.027344 293.351562 217.894531 304.632812 C 207.277344 316.464844 193.789062 327.828125 177.929688 338.382812 C 161.269531 349.40625 142.804688 359.105469 122.953125 367.113281 M 126.621094 376.214844 C 210.46875 342.40625 265 281.761719 248.484375 240.804688 C 231.972656 199.84375 150.625 193.984375 66.777344 227.792969 C -17.066406 261.597656 -71.625 322.183594 -55.085938 363.203125 C -38.570312 404.160156 42.773438 410.019531 126.621094 376.214844 Z M 126.621094 376.214844 " fill-opacity="1" fill-rule="nonzero"/></g></g></g><g clip-path="url(#id8)"><path fill="rgb(100%, 100%, 100%)" d="M 279.925781 111.4375 C 316.980469 111.4375 352.886719 116.480469 386.613281 126.566406 C 418.960938 136.191406 447.984375 149.828125 472.761719 167.246094 C 522.207031 201.964844 549.394531 247.460938 549.394531 295.359375 C 549.394531 343.257812 522.207031 388.867188 472.761719 423.472656 C 447.984375 440.890625 418.960938 454.527344 386.613281 464.152344 C 352.886719 474.121094 316.980469 479.277344 279.925781 479.277344 C 242.875 479.277344 206.96875 474.238281 173.242188 464.152344 C 140.890625 454.527344 111.867188 440.890625 87.089844 423.472656 C 37.53125 388.867188 10.34375 343.371094 10.34375 295.359375 C 10.34375 247.34375 37.53125 201.964844 86.976562 167.246094 C 111.753906 149.828125 140.777344 136.191406 173.125 126.566406 C 206.96875 116.480469 242.875 111.4375 279.925781 111.4375 M 279.925781 94.25 C 121.503906 94.25 -6.863281 184.320312 -6.863281 295.359375 C -6.863281 406.398438 121.503906 496.46875 279.925781 496.46875 C 438.347656 496.46875 566.714844 406.398438 566.714844 295.359375 C 566.714844 184.320312 438.347656 94.25 279.925781 94.25 Z M 279.925781 94.25 " fill-opacity="1" fill-rule="nonzero"/></g><g clip-path="url(#id9)"><path fill="rgb(0%, 0%, 0%)" d="M 151.574219 133.46875 C 132.226562 133.46875 113.476562 136.105469 95.863281 141.382812 C 78.972656 146.417969 63.816406 153.554688 50.875 162.667969 C 25.058594 180.839844 10.863281 204.644531 10.863281 229.707031 C 10.863281 254.773438 25.058594 278.640625 50.875 296.746094 C 63.816406 305.863281 78.972656 312.996094 95.863281 318.035156 C 113.476562 323.25 132.226562 325.949219 151.574219 325.949219 C 170.921875 325.949219 189.671875 323.3125 207.28125 318.035156 C 224.175781 312.996094 239.332031 305.863281 252.269531 296.746094 C 278.148438 278.640625 292.34375 254.832031 292.34375 229.707031 C 292.34375 204.585938 278.148438 180.839844 252.328125 162.667969 C 239.390625 153.554688 224.234375 146.417969 207.34375 141.382812 C 189.671875 136.105469 170.921875 133.46875 151.574219 133.46875 M 151.574219 124.472656 C 234.300781 124.472656 301.332031 171.605469 301.332031 229.707031 C 301.332031 287.8125 234.300781 334.945312 151.574219 334.945312 C 68.847656 334.945312 1.816406 287.8125 1.816406 229.707031 C 1.816406 171.605469 68.847656 124.472656 151.574219 124.472656 Z M 151.574219 124.472656 " fill-opacity="1" fill-rule="nonzero"/></g><g clip-path="url(#id10)"><path fill="rgb(0%, 0%, 0%)" d="M 416.125 133.46875 C 435.472656 133.46875 454.222656 136.105469 471.835938 141.382812 C 488.726562 146.417969 503.882812 153.554688 516.820312 162.667969 C 542.640625 180.839844 556.835938 204.644531 556.835938 229.707031 C 556.835938 254.773438 542.640625 278.640625 516.820312 296.746094 C 503.882812 305.863281 488.726562 312.996094 471.835938 318.035156 C 454.222656 323.25 435.472656 325.949219 416.125 325.949219 C 396.777344 325.949219 378.027344 323.3125 360.414062 318.035156 C 343.523438 312.996094 328.367188 305.863281 315.425781 296.746094 C 289.550781 278.640625 275.351562 254.832031 275.351562 229.707031 C 275.351562 204.585938 289.550781 180.839844 315.367188 162.667969 C 328.308594 153.554688 343.460938 146.417969 360.355469 141.382812 C 378.027344 136.105469 396.777344 133.46875 416.125 133.46875 M 416.125 124.472656 C 333.398438 124.472656 266.367188 171.605469 266.367188 229.707031 C 266.367188 287.8125 333.398438 334.945312 416.125 334.945312 C 498.851562 334.945312 565.882812 287.8125 565.882812 229.707031 C 565.882812 171.605469 498.851562 124.472656 416.125 124.472656 Z M 416.125 124.472656 " fill-opacity="1" fill-rule="nonzero"/></g><g clip-path="url(#id11)"><path fill="rgb(100%, 100%, 100%)" d="M -263.875 379.867188 L 36.476562 379.867188 L 36.476562 668.238281 L -263.875 668.238281 L -263.875 379.867188 " fill-opacity="1" fill-rule="nonzero"/></g><g clip-path="url(#id12)"><path fill="rgb(100%, 100%, 100%)" d="M 525.953125 379.867188 L 814.320312 379.867188 L 814.320312 668.238281 L 525.953125 668.238281 L 525.953125 379.867188 " fill-opacity="1" fill-rule="nonzero"/></g><g clip-path="url(#id13)"><path fill="rgb(100%, 100%, 100%)" d="M 681.714844 191.679688 C 602.082031 191.679688 537.53125 256.234375 537.53125 335.867188 C 537.53125 415.496094 602.082031 480.050781 681.714844 480.050781 C 761.34375 480.050781 825.898438 415.496094 825.898438 335.867188 C 825.898438 256.234375 761.34375 191.679688 681.714844 191.679688 " fill-opacity="1" fill-rule="nonzero"/></g></svg>